<svg xmlns="http://www.w3.org/2000/svg" xmlns:xlink="http://www.w3.org/1999/xlink" viewBox="0 0 320.61 511.33">
    <defs>
        <style>
            .cls-1{opacity:0.2;}.cls-2{fill:url(#linear-gradient);}.cls-10,.cls-3,.cls-4,.cls-5,.cls-6,.cls-7,.cls-8{fill:none;}.cls-3{stroke:#709cd2;stroke-width:6px;opacity:0.25;}.cls-3,.cls-4,.cls-5,.cls-6,.cls-7,.cls-8{stroke-linecap:round;stroke-linejoin:round;}.cls-4{stroke:#5e93cd;stroke-width:5px;opacity:0.3;}.cls-5{stroke:#0073bc;stroke-width:4px;}.cls-6{stroke:#3081c4;stroke-width:3.25px;}.cls-7{stroke:#578fcb;stroke-width:2.5px;}.cls-8{stroke:#7ea4d6;stroke-width:1.65px;}.cls-9{fill:url(#linear-gradient-2);}
        </style>
        <linearGradient id="linear-gradient" x1="10" y1="256.64" x2="310.61" y2="256.64" gradientUnits="userSpaceOnUse">
            <stop offset="0" stop-color="#333"/>
            <stop offset="0.05" stop-color="#4a2d2d"/>
            <stop offset="0.24" stop-color="#971a1a"/>
            <stop offset="0.4" stop-color="#cf0c0c"/>
            <stop offset="0.51" stop-color="#f20303"/>
            <stop offset="0.57" stop-color="red"/>
            <stop offset="0.96" stop-color="#1a1a1a"/>
        </linearGradient>
        <linearGradient id="linear-gradient-2" x1="0" y1="255.66" x2="320.61" y2="255.66"
                        xlink:href="#linear-gradient"/>
    </defs>
    <g id="Layer_2" data-name="Layer 2">
        <g id="Layer_1-2" data-name="Layer 1">
            <g class="cls-1">
                <path class="cls-2"
                      d="M160.39,16.24c8.7,9.18,16.7,12.76,23.44,12.76,7.19,0,12.94-4.08,16.56-9.76,23,2,43,18,70,39,13,12,39,21,39,21s.5,336.5,0,349c-.32,7.9-15.17,13.9-61,27-21,6-62,22-88,42-24-20-62-34-92-42-22-5.88-55-11-56-27,1-64.12.5-154.12-1-230-.78-39.42-.17-79.58,0-119,21-5,37-19,56-34,14-11,31-22,54-26A18.16,18.16,0,0,0,137.45,29c6.73,0,14.72-3.57,22.94-12.76m0-1.48-.73.81C150.45,25.84,142.5,28,137.45,28a17.16,17.16,0,0,1-15.18-9.24l-.35-.63-.7.12c-24.17,4.21-41.8,16.21-54.45,26.2-1.84,1.45-3.65,2.9-5.44,4.32-16.86,13.43-31.42,25-50.17,29.5l-.77.18v.78c0,9.35-.11,18.91-.17,28.16-.21,29.88-.43,60.78.17,90.87,1.6,80.76,2,168.88,1,230v.08c.89,14.26,24.82,20.07,45.92,25.2,3.82.92,7.43,1.8,10.82,2.7,22.77,6.08,65,19.58,91.62,41.81l.61.51L161,498c25.47-19.59,66.38-35.75,87.66-41.83,48.71-13.92,61.4-19.66,61.73-27.92.49-12.38,0-345.68,0-349v-.71l-.67-.24c-.26-.09-26-9.07-38.65-20.79l0,0,0,0-2.14-1.67c-25.54-19.87-45.7-35.57-68.39-37.54l-.6,0-.33.51c-3.81,6-9.39,9.3-15.71,9.3-7.15,0-15-4.3-22.72-12.45l-.74-.79Z"/>
            </g>
            <path class="cls-3"
                  d="M11.39,79.24c21-5,37-19,56-34,14-11,31-22,54-26,6,11,22,16,39-3,18,19,33,14,40,3,23,2,43,18,70,39,13,12,39,21,39,21s.5,336.5,0,349c-.32,7.9-15.17,13.9-61,27-21,6-62,22-88,42-24-20-62-34-92-42-22-5.88-55-11-56-27,1-64.12.5-154.12-1-230C10.61,158.82,11.22,118.66,11.39,79.24Z"/>
            <path class="cls-4"
                  d="M11.39,79.24c21-5,37-19,56-34,14-11,31-22,54-26,6,11,22,16,39-3,18,19,33,14,40,3,23,2,43,18,70,39,13,12,39,21,39,21s.5,336.5,0,349c-.32,7.9-15.17,13.9-61,27-21,6-62,22-88,42-24-20-62-34-92-42-22-5.88-55-11-56-27,1-64.12.5-154.12-1-230C10.61,158.82,11.22,118.66,11.39,79.24Z"/>
            <path class="cls-5"
                  d="M11.39,79.24c21-5,37-19,56-34,14-11,31-22,54-26,6,11,22,16,39-3,18,19,33,14,40,3,23,2,43,18,70,39,13,12,39,21,39,21s.5,336.5,0,349c-.32,7.9-15.17,13.9-61,27-21,6-62,22-88,42-24-20-62-34-92-42-22-5.88-55-11-56-27,1-64.12.5-154.12-1-230C10.61,158.82,11.22,118.66,11.39,79.24Z"/>
            <path class="cls-6"
                  d="M11.39,79.24c21-5,37-19,56-34,14-11,31-22,54-26,6,11,22,16,39-3,18,19,33,14,40,3,23,2,43,18,70,39,13,12,39,21,39,21s.5,336.5,0,349c-.32,7.9-15.17,13.9-61,27-21,6-62,22-88,42-24-20-62-34-92-42-22-5.88-55-11-56-27,1-64.12.5-154.12-1-230C10.61,158.82,11.22,118.66,11.39,79.24Z"/>
            <path class="cls-7"
                  d="M11.39,79.24c21-5,37-19,56-34,14-11,31-22,54-26,6,11,22,16,39-3,18,19,33,14,40,3,23,2,43,18,70,39,13,12,39,21,39,21s.5,336.5,0,349c-.32,7.9-15.17,13.9-61,27-21,6-62,22-88,42-24-20-62-34-92-42-22-5.88-55-11-56-27,1-64.12.5-154.12-1-230C10.61,158.82,11.22,118.66,11.39,79.24Z"/>
            <path class="cls-8"
                  d="M11.39,79.24c21-5,37-19,56-34,14-11,31-22,54-26,6,11,22,16,39-3,18,19,33,14,40,3,23,2,43,18,70,39,13,12,39,21,39,21s.5,336.5,0,349c-.32,7.9-15.17,13.9-61,27-21,6-62,22-88,42-24-20-62-34-92-42-22-5.88-55-11-56-27,1-64.12.5-154.12-1-230C10.61,158.82,11.22,118.66,11.39,79.24Z"/>
            <path class="cls-9"
                  d="M160.39,16.24c8.7,9.18,16.7,12.76,23.44,12.76,7.19,0,12.94-4.08,16.56-9.76,23,2,43,18,70,39,13,12,39,21,39,21s.5,336.5,0,349c-.32,7.9-15.17,13.9-61,27-21,6-62,22-88,42-24-20-62-34-92-42-22-5.88-55-11-56-27,1-64.12.5-154.12-1-230-.78-39.42-.17-79.58,0-119,21-5,37-19,56-34,14-11,31-22,54-26A18.16,18.16,0,0,0,137.45,29c6.73,0,14.72-3.57,22.94-12.76M160.16,0l-8,8.9c-7.08,7.92-12.28,9.1-14.74,9.1A7.24,7.24,0,0,1,131,14l-3.77-6.92L119.5,8.4C93.12,13,74.15,25.88,60.57,36.6L55.1,41C39.18,53.63,25.42,64.59,8.84,68.54l-8.41,2,0,8.65c0,9.34-.11,18.89-.17,28.13-.21,30-.43,60.92.17,91.14,1.6,80.65,2,168.63,1,229.6v.43l0,.43c.65,10.41,8,18.73,21.75,24.74,9.48,4.14,21.33,7,31.8,9.56,3.76.91,7.31,1.77,10.59,2.65,37.39,10,69.39,24.48,87.8,39.82l6.76,5.64,7-5.37c24.36-18.74,63.77-34.27,84.32-40.14,25.46-7.28,39.63-11.9,48.94-15.94,5.84-2.55,19.52-8.5,20-21.2s0-335.71,0-349.46V71.4L313,68.84c-6.64-2.3-25.91-10.16-35.14-18.68l-.34-.32-.37-.28L275,47.89C248.16,27,227,10.51,201.34,8.28l-6.65-.58-3.58,5.63c-1.36,2.13-3.72,4.67-7.28,4.67-4.27,0-9.76-3.31-15.46-9.33L160.16,0Z"/>
            <line class="cls-10" x1="58.39" y1="319.74" x2="275.39" y2="319.74"/>
            <line class="cls-10" x1="163.89" y1="336.74" x2="163.89" y2="430.74"/>
            <line class="cls-10" x1="140.39" y1="444.24" x2="188.39" y2="444.24"/>
            <path class="cls-10" d="M160.39,16.24c.88-1.79,18,29,41,3,26,4,42,18,69,39"/>
            <line class="cls-10" x1="11.39" y1="268.24" x2="309.39" y2="268.24"/>
            <line class="cls-10" x1="114.39" y1="19.24" x2="114.39" y2="269.24"/>
        </g>
    </g>
</svg>